<svg xmlns="http://www.w3.org/2000/svg" style="display: none;">
  <symbol id="documentation-icon" viewBox="0 0 24 24">
    <path fill="currentColor" d="M14 2H6c-1.1 0-2 .9-2 2v16c0 1.1.9 2 2 2h12c1.1 0 2-.9 2-2V8l-6-6zM6 20V4h7v5h5v11H6z"/>
  </symbol>
  <symbol id="social-icon" viewBox="0 0 24 24">
    <path fill="currentColor" d="M12 2C6.48 2 2 6.48 2 12s4.48 10 10 10 10-4.48 10-10S17.52 2 12 2zm0 18c-4.41 0-8-3.59-8-8s3.59-8 8-8 8 3.59 8 8-3.59 8-8 8z"/>
  </symbol>
  <symbol id="github-icon" viewBox="0 0 24 24">
    <path fill="currentColor" d="M12 2C6.48 2 2 6.48 2 12c0 4.42 2.87 8.17 6.84 9.5.5.08.66-.23.66-.5v-1.69c-2.77.6-3.36-1.34-3.36-1.34-.46-1.16-1.11-1.47-1.11-1.47-.91-.62.07-.6.07-.6 1 .07 1.53 1.03 1.53 1.03.89 1.52 2.34 1.07 2.91.83.09-.65.35-1.09.63-1.34-2.22-.25-4.55-1.11-4.55-4.92 0-1.08.39-1.96 1.03-2.65-.1-.25-.45-1.25.1-2.62 0 0 .84-.27 2.75 1.02.79-.22 1.65-.33 2.5-.33.85 0 1.71.11 2.5.33 1.91-1.29 2.75-1.02 2.75-1.02.55 1.37.2 2.37.1 2.62.64.69 1.03 1.57 1.03 2.65 0 3.82-2.34 4.66-4.57 4.91.36.31.69.92.69 1.85v2.74c0 .27.16.59.67.5C19.14 20.16 22 16.42 22 12c0-5.52-4.48-10-10-10z"/>
  </symbol>
  <symbol id="discord-icon" viewBox="0 0 24 24">
    <path fill="currentColor" d="M19.27 4.58a15.47 15.47 0 0 0-3.81-1.18.05.05 0 0 0-.05.02c-.16.29-.34.66-.46.96a14.28 14.28 0 0 0-4.89 0c-.13-.3-.31-.67-.47-.96a.05.05 0 0 0-.05-.02 15.44 15.44 0 0 0-3.81 1.18.05.05 0 0 0-.02.01C3.3 8.39 2.32 12.08 2.66 15.7a.05.05 0 0 0 .02.03c2.4 1.76 4.73 2.84 7.02 3.55a.05.05 0 0 0 .06-.02c.55-.75 1.03-1.55 1.43-2.39a.05.05 0 0 0-.03-.06c-.76-.29-1.48-.64-2.16-1.05a.05.05 0 0 1-.01-.08c.15-.11.3-.23.44-.35a.05.05 0 0 1 .05-.01c4.58 2.09 9.54 2.09 14.07 0a.05.05 0 0 1 .05.01c.14.12.29.24.44.35a.05.05 0 0 1-.01.08c-.68.41-1.4.76-2.16 1.05a.05.05 0 0 0-.03.07c.4 1.43 1.03 2.14 1.43 2.39a.05.05 0 0 0 .06.02c2.29-.71 4.62-1.79 7.02-3.55a.05.05 0 0 0 .02-.03c.4-4.22-.68-7.89-2.91-11.11a.05.05 0 0 0-.02-.01zM8.52 14.91c-1.03 0-1.89-.95-1.89-2.12s.84-2.12 1.89-2.12c1.06 0 1.9.96 1.89 2.12 0 1.17-.84 2.12-1.89 2.12zm6.97 0c-1.03 0-1.89-.95-1.89-2.12s.84-2.12 1.89-2.12c1.06 0 1.9.96 1.89 2.12 0 1.17-.84 2.12-1.89 2.12z"/>
  </symbol>
  <symbol id="x-icon" viewBox="0 0 24 24">
    <path fill="currentColor" d="M18.901 1.153h3.68l-8.04 9.19L24 22.846h-7.406l-5.8-7.584-6.638 7.584H.474l8.6-9.83L0 1.154h7.594l5.243 6.932 6.064-6.932zm-1.292 19.49h2.039L6.486 3.24H4.298l13.311 17.403z"/>
  </symbol>
  <symbol id="bluesky-icon" viewBox="0 0 24 24">
    <path fill="currentColor" d="M12 10.8c-1.32-2.4-4.56-6.6-8.4-6.6-4.2 0-6 3.3-6 6.3 0 1.8.9 5.4 1.8 6.9 1.8 3.3 5.4 4.5 9 3.6-1.8 1.5-3.6 2.7-3.6 4.8 0 3.3 2.7 4.2 5.4 4.2.9 0 1.8-.3 1.8-.9s-.9-.9-1.8-.9c-1.8 0-2.4-.6-2.4-1.5 0-.9.9-1.8 2.4-3.3 1.5 1.5 2.4 2.4 2.4 3.3 0 .9-.6 1.5-2.4 1.5-.9 0-1.8.3-1.8.9s.9.9 1.8.9c2.7 0 5.4-.9 5.4-4.2 0-2.1-1.8-3.3-3.6-4.8 3.6.9 7.2-.3 9-3.6.9-1.5 1.8-5.1 1.8-6.9 0-3-1.8-6.3-6-6.3-3.84 0-7.08 4.2-8.4 6.6Z"/>
  </symbol>
</svg>
